<?xml version="1.0" encoding="UTF-8"?>
<svg width="24px" height="24px" viewBox="0 0 24 24" version="1.1" xmlns="http://www.w3.org/2000/svg" xmlns:xlink="http://www.w3.org/1999/xlink">
    <!-- Generator: Sketch 51.2 (57519) - http://www.bohemiancoding.com/sketch -->
    <title>icon / warning</title>
    <desc>Created with Sketch.</desc>
    <defs>
        <path d="M12,4 C7.589,4 4,7.589 4,12 C4,16.411 7.589,20 12,20 C16.411,20 20,16.411 20,12 C20,7.589 16.411,4 12,4 M12,22 C6.486,22 2,17.515 2,12 C2,6.486 6.486,2 12,2 C17.514,2 22,6.486 22,12 C22,17.515 17.514,22 12,22 Z M13.25,16 C13.25,15.31 12.69,14.75 12,14.75 C11.31,14.75 10.75,15.31 10.75,16 C10.75,16.69 11.31,17.25 12,17.25 C12.69,17.25 13.25,16.69 13.25,16 Z M13,13 L13,6 L11,6 L11,13 L13,13 Z" id="path-1"></path>
    </defs>
    <g id="icon-/-warning" stroke="none" stroke-width="1" fill="none" fill-rule="evenodd">
        <mask id="mask-2" fill="white">
            <use xlink:href="#path-1"></use>
        </mask>
        <use id="Icon" fill="#F3D15D" xlink:href="#path-1"></use>
    </g>
</svg>